<svg width="20" height="20" viewBox="0 0 20 20" fill="none" xmlns="http://www.w3.org/2000/svg">
<path d="M10 20C7.34784 20 4.8043 18.9464 2.92893 17.0711C1.05357 15.1957 0 12.6522 0 10C0 7.34784 1.05357 4.8043 2.92893 2.92893C4.8043 1.05357 7.34784 0 10 0C11.3132 0 12.6136 0.258658 13.8268 0.761205C15.0401 1.26375 16.1425 2.00035 17.0711 2.92893C17.9997 3.85752 18.7362 4.95991 19.2388 6.17317C19.7413 7.38642 20 8.68678 20 10C20 11.3132 19.7413 12.6136 19.2388 13.8268C18.7362 15.0401 17.9997 16.1425 17.0711 17.0711C16.1425 17.9997 15.0401 18.7362 13.8268 19.2388C12.6136 19.7413 11.3132 20 10 20Z" fill="#98D9B9" fill-opacity="0.31"/>
<path d="M8.88698 13.968C8.72886 13.9682 8.57224 13.9372 8.42614 13.8767C8.28004 13.8162 8.14734 13.7275 8.03565 13.6155L4.73321 10.3133C4.51014 10.087 4.38559 9.78164 4.38673 9.46386C4.38786 9.14608 4.51458 8.84164 4.73925 8.6169C4.96393 8.39217 5.26834 8.26537 5.58611 8.26416C5.90389 8.26294 6.20926 8.38741 6.43565 8.61042L8.88676 11.0613L13.5637 6.38442C13.7895 6.1586 14.0957 6.03174 14.4151 6.03174C14.7344 6.03174 15.0407 6.1586 15.2665 6.38442C15.4924 6.61024 15.6192 6.91651 15.6192 7.23586C15.6192 7.55522 15.4924 7.86149 15.2665 8.08731L9.73832 13.6155C9.62663 13.7275 9.49393 13.8162 9.34783 13.8767C9.20173 13.9372 9.04511 13.9682 8.88698 13.968Z" fill="#0CAF60"/>
</svg>
